<svg viewBox="0 0 1000 1000" xmlns="http://www.w3.org/2000/svg"><defs><clipPath id="a"><path fill="currentColor" d="M862 623q-24 123-132.5 186.5t-231 67.5Q376 881 245 831T115.5 640.5q1.5-140.5 63-235t135-174.5q73.5-80 193-99.5T688 215q62 103 130 194t44 214Z"/></clipPath></defs><g clip-path="url(#a)"><path fill="none" stroke="#000" stroke-width="10" d="M862 623q-24 123-132.5 186.5t-231 67.5Q376 881 245 831T115.5 640.5q1.5-140.5 63-235t135-174.5q73.5-80 193-99.5T688 215q62 103 130 194t44 214Z"/></g></svg>