<svg viewBox="0 0 1000 1000" xmlns="http://www.w3.org/2000/svg"><defs><clipPath id="a"><path fill="currentColor" d="M851 594.5q-91 94.5-170.5 156t-197 112q-117.5 50.5-202-46t-84-206.5q.5-110 5-216.5t95-171.5q90.5-65 197-49.5T750 199q149 11 170.5 156T851 594.5Z"/></clipPath></defs><g clip-path="url(#a)"><path fill="none" stroke="#000" stroke-width="10" d="M851 594.5q-91 94.5-170.5 156t-197 112q-117.5 50.5-202-46t-84-206.5q.5-110 5-216.5t95-171.5q90.5-65 197-49.5T750 199q149 11 170.5 156T851 594.5Z"/></g></svg>