<?xml version="1.0" standalone="no"?>
<svg viewBox="0 0 200 200" xmlns="http://www.w3.org/2000/svg">
  <path fill="#F2F4F8" d="M35.6,-56.8C47.9,-54.5,60.8,-48.6,68.1,-38.5C75.3,-28.4,76.9,-14.2,75,-1.1C73,12,67.6,24,62.1,36.9C56.5,49.9,50.7,63.8,40.3,70.8C29.9,77.7,15,77.7,-0.1,77.8C-15.1,77.9,-30.2,78.1,-42.4,72.3C-54.7,66.4,-64.1,54.4,-65,41.4C-65.8,28.3,-58,14.2,-59.3,-0.7C-60.6,-15.6,-70.9,-31.3,-67.5,-40C-64.2,-48.7,-47.2,-50.5,-33.6,-52.1C-20.1,-53.7,-10.1,-55.1,0.8,-56.4C11.6,-57.8,23.3,-59.2,35.6,-56.8Z" transform="translate(100 100)" />
</svg>
