<?xml version="1.0" standalone="no"?>
<svg viewBox="0 0 200 200" xmlns="http://www.w3.org/2000/svg">
  <path fill="#F2F4F8" d="M40.9,-65.4C55.4,-62.6,70.9,-56.3,78.5,-44.8C86,-33.3,85.5,-16.6,84.9,-0.3C84.4,16,83.8,32,73.9,39.4C64,46.9,44.9,45.7,31,51.6C17.1,57.6,8.6,70.8,-2.6,75.3C-13.8,79.8,-27.5,75.6,-36.5,66.8C-45.5,58.1,-49.8,44.6,-57.6,32.7C-65.3,20.8,-76.7,10.4,-78.9,-1.3C-81.2,-13.1,-74.5,-26.1,-66.3,-37.2C-58,-48.3,-48.2,-57.4,-36.9,-62.1C-25.6,-66.8,-12.8,-66.9,0.2,-67.3C13.3,-67.7,26.5,-68.3,40.9,-65.4Z" transform="translate(100 100)" />
</svg>
