<?xml version="1.0" standalone="no"?>
<svg viewBox="0 0 200 200" xmlns="http://www.w3.org/2000/svg">
  <path fill="#F2F4F8" d="M39,-69.6C48.5,-62.1,52.8,-47.5,55.2,-34.7C57.7,-22,58.3,-11,59.4,0.6C60.5,12.3,62.1,24.5,58.6,35.4C55.1,46.3,46.3,55.7,35.7,62.3C25.1,68.8,12.5,72.5,-1.3,74.8C-15.2,77.1,-30.4,78,-43.3,72.8C-56.1,67.5,-66.6,56,-74.3,42.8C-82.1,29.7,-87.1,14.8,-84.3,1.6C-81.6,-11.6,-71,-23.3,-64,-37.7C-56.9,-52,-53.4,-69.2,-43.3,-76.4C-33.2,-83.6,-16.6,-80.9,-0.9,-79.3C14.7,-77.7,29.5,-77.2,39,-69.6Z" transform="translate(100 100)" />
</svg>
