<?xml version="1.0" standalone="no"?>
<svg viewBox="0 0 200 200" xmlns="http://www.w3.org/2000/svg">
  <path fill="#F2F4F8" d="M43.2,-74.2C56.4,-67.2,67.9,-56.5,75.1,-43.5C82.3,-30.5,85.3,-15.3,85.2,0C85.1,15.2,82,30.4,74.8,43.3C67.5,56.1,56,66.7,42.9,74C29.7,81.4,14.9,85.5,-0.4,86.2C-15.6,86.9,-31.3,84.1,-45.5,77.3C-59.6,70.6,-72.3,59.8,-81,46.3C-89.7,32.7,-94.4,16.4,-93.1,0.7C-91.8,-14.9,-84.5,-29.7,-76,-43.6C-67.5,-57.5,-57.8,-70.4,-44.9,-77.7C-32.1,-84.9,-16,-86.5,-0.5,-85.5C15,-84.6,30,-81.2,43.2,-74.2Z" transform="translate(100 100)" />
</svg>
