<?xml version="1.0" standalone="no"?>
<svg viewBox="0 0 200 200" xmlns="http://www.w3.org/2000/svg">
  <path fill="#F2F4F8" d="M27.8,-51.8C38.3,-42.2,50.5,-39.2,56.1,-31.7C61.8,-24.2,60.8,-12.1,61.5,0.4C62.2,12.9,64.7,25.9,62.9,39.9C61.1,54,54.9,69.2,43.7,78.6C32.5,87.9,16.2,91.5,2.1,87.8C-12.1,84.2,-24.1,73.5,-36.4,64.7C-48.6,55.9,-61,49.2,-67,38.7C-72.9,28.3,-72.4,14.1,-72.1,0.2C-71.8,-13.8,-71.8,-27.6,-64.1,-35.1C-56.5,-42.6,-41.2,-43.8,-29.3,-52.6C-17.3,-61.3,-8.7,-77.7,0,-77.7C8.7,-77.7,17.4,-61.4,27.8,-51.8Z" transform="translate(100 100)" />
</svg>
