<svg viewBox="0 0 1000 1000" xmlns="http://www.w3.org/2000/svg"><defs><clipPath id="a"><path fill="currentColor" d="M843 631.5Q862 763 741.5 818t-251 84Q360 931 250 846.5T159.5 631Q179 500 181 385t90.5-215.5Q360 69 489.5 102T686 225.5Q753 316 788.5 408T843 631.5Z"/></clipPath></defs><g clip-path="url(#a)"><path fill="none" stroke="#000" stroke-width="10" d="M843 631.5Q862 763 741.5 818t-251 84Q360 931 250 846.5T159.5 631Q179 500 181 385t90.5-215.5Q360 69 489.5 102T686 225.5Q753 316 788.5 408T843 631.5Z"/></g></svg>