<?xml version="1.0" standalone="no"?>
<svg viewBox="0 0 200 200" xmlns="http://www.w3.org/2000/svg">
  <path fill="#F2F4F8" d="M27.6,-51.5C35.8,-43.2,42.4,-35.7,47.3,-27.3C52.3,-18.8,55.7,-9.4,60.1,2.6C64.5,14.5,70,29.1,68.2,42.9C66.3,56.7,57.1,69.8,44.5,74.7C31.9,79.7,16,76.5,-0.3,76.9C-16.5,77.4,-32.9,81.4,-42.9,75C-52.8,68.5,-56.3,51.5,-62.1,37.3C-68,23,-76.1,11.5,-78.5,-1.3C-80.8,-14.2,-77.3,-28.4,-70.2,-40.4C-63.1,-52.5,-52.4,-62.3,-40.1,-68.3C-27.8,-74.3,-13.9,-76.4,-2.1,-72.8C9.7,-69.2,19.5,-59.9,27.6,-51.5Z" transform="translate(100 100)" />
</svg>
