<?xml version="1.0" standalone="no"?>
<svg viewBox="0 0 200 200" xmlns="http://www.w3.org/2000/svg">
  <path fill="#F2F4F8" d="M25.9,-44.8C34.6,-39.7,43.6,-35,47.9,-27.6C52.3,-20.2,52,-10.1,52.5,0.3C53,10.6,54.1,21.3,53.6,35.3C53,49.2,50.7,66.5,41.5,75.6C32.3,84.7,16.1,85.6,2.7,80.9C-10.7,76.2,-21.4,65.9,-34.9,59.2C-48.3,52.6,-64.6,49.7,-74.7,40.4C-84.7,31.1,-88.6,15.6,-87.1,0.9C-85.6,-13.8,-78.7,-27.6,-71.2,-41.4C-63.8,-55.2,-55.8,-69,-43.8,-72.2C-31.9,-75.5,-15.9,-68.2,-3.7,-61.8C8.6,-55.4,17.1,-49.9,25.9,-44.8Z" transform="translate(100 100)" />
</svg>
