<?xml version="1.0" standalone="no"?>
<svg viewBox="0 0 200 200" xmlns="http://www.w3.org/2000/svg">
  <path fill="#F2F4F8" d="M43.6,-75.4C55.1,-68.8,62.2,-54.4,69,-40.5C75.9,-26.7,82.6,-13.3,79.2,-1.9C75.8,9.5,62.5,18.9,55.3,32.1C48,45.4,46.9,62.4,38.7,69.9C30.6,77.4,15.3,75.3,-0.4,76.1C-16.1,76.8,-32.2,80.3,-41.8,73.6C-51.5,66.9,-54.6,50.1,-58.3,36.2C-61.9,22.2,-66.2,11.1,-69.1,-1.7C-72.1,-14.5,-73.8,-29,-70.1,-43C-66.5,-57,-57.5,-70.5,-44.9,-76.5C-32.3,-82.5,-16.2,-81,-0.1,-80.9C16,-80.8,32,-82,43.6,-75.4Z" transform="translate(100 100)" />
</svg>
