<?xml version="1.0" standalone="no"?>
<svg viewBox="0 0 200 200" xmlns="http://www.w3.org/2000/svg">
  <path fill="#F2F4F8" d="M40.9,-66.2C53.6,-63.5,65.1,-53.8,72.5,-41.6C79.9,-29.4,83.4,-14.7,84.2,0.5C85.1,15.7,83.4,31.4,76.8,45.1C70.2,58.8,58.8,70.4,45.2,77.7C31.6,85.1,15.8,88,0.8,86.7C-14.2,85.3,-28.4,79.6,-40.9,71.6C-53.4,63.7,-64.2,53.5,-68.9,41.2C-73.6,28.9,-72.3,14.4,-71.5,0.4C-70.8,-13.6,-70.8,-27.2,-67.3,-41.6C-63.8,-56,-56.8,-71.1,-45,-74.4C-33.2,-77.7,-16.6,-69.2,-1.3,-67C14.1,-64.9,28.1,-69,40.9,-66.2Z" transform="translate(100 100)" />
</svg>
