<svg viewBox="0 0 1000 1000" xmlns="http://www.w3.org/2000/svg"><defs><clipPath id="a"><path fill="currentColor" d="M879 641q9 141-109.5 232.5t-252 37.5q-133.5-54-210-134.5T158.5 598q-72.5-98-47-230t140-205.5Q366 89 494 106t244.5 76.5Q855 242 862.5 371T879 641Z"/></clipPath></defs><g clip-path="url(#a)"><path fill="none" stroke="#000" stroke-width="10" d="M879 641q9 141-109.5 232.5t-252 37.5q-133.5-54-210-134.5T158.5 598q-72.5-98-47-230t140-205.5Q366 89 494 106t244.5 76.5Q855 242 862.5 371T879 641Z"/></g></svg>