<?xml version="1.0" standalone="no"?>
<svg viewBox="0 0 200 200" xmlns="http://www.w3.org/2000/svg">
  <path fill="#F2F4F8" d="M37.3,-61.6C47.6,-58.6,54.6,-47.1,61.5,-35.4C68.4,-23.7,75.1,-11.9,77.8,1.6C80.5,15,79.2,30,71.6,40.5C64,51,50.2,57,37.2,57.9C24.3,58.9,12.1,54.8,1.1,52.9C-10,51,-19.9,51.4,-33.7,50.9C-47.6,50.5,-65.2,49.2,-75.3,40.5C-85.3,31.9,-87.7,16,-85.6,1.2C-83.5,-13.5,-76.9,-27,-66.6,-35.2C-56.3,-43.4,-42.4,-46.4,-30.7,-48.5C-19,-50.6,-9.5,-52,2,-55.5C13.5,-59,27,-64.6,37.3,-61.6Z" transform="translate(100 100)" />
</svg>
