<?xml version="1.0" standalone="no"?>
<svg viewBox="0 0 200 200" xmlns="http://www.w3.org/2000/svg">
  <path fill="#F2F4F8" d="M40.2,-70.4C48.4,-64.9,48.9,-46.7,53.1,-32.8C57.3,-19,65.2,-9.5,66.7,0.8C68.1,11.1,63,22.3,56.8,32.7C50.7,43.2,43.5,53,33.8,58.6C24.2,64.3,12.1,65.7,-2.1,69.3C-16.2,72.9,-32.5,78.6,-41.3,72.5C-50.1,66.4,-51.6,48.5,-59.7,34.5C-67.8,20.4,-82.5,10.2,-82.2,0.2C-81.8,-9.8,-66.4,-19.6,-55.6,-29C-44.9,-38.5,-38.7,-47.5,-30.3,-52.9C-21.8,-58.2,-10.9,-59.9,2.6,-64.3C16,-68.8,32,-75.9,40.2,-70.4Z" transform="translate(100 100)" />
</svg>
