<?xml version="1.0" standalone="no"?>
<svg viewBox="0 0 200 200" xmlns="http://www.w3.org/2000/svg">
  <path fill="#F2F4F8" d="M46.1,-77.7C59.7,-72,70.5,-59.5,75.5,-45.4C80.5,-31.3,79.7,-15.6,79.5,-0.1C79.3,15.4,79.6,30.8,73.3,42.7C67,54.6,54.2,63,40.8,66C27.5,69,13.8,66.6,0.7,65.3C-12.3,64.1,-24.6,64,-38.5,61.3C-52.3,58.6,-67.8,53.3,-73.3,42.7C-78.8,32,-74.4,16,-71.3,1.8C-68.3,-12.5,-66.5,-24.9,-59.7,-33.4C-52.9,-41.9,-41.1,-46.4,-30.4,-53.6C-19.6,-60.8,-9.8,-70.8,3.2,-76.4C16.3,-82,32.5,-83.3,46.1,-77.7Z" transform="translate(100 100)" />
</svg>
