<?xml version="1.0" standalone="no"?>
<svg viewBox="0 0 200 200" xmlns="http://www.w3.org/2000/svg">
  <path fill="#F2F4F8" d="M30.3,-52.4C43.6,-44.8,61.7,-45.4,72.4,-38.1C83.1,-30.7,86.4,-15.4,84.4,-1.2C82.4,13.1,75.1,26.1,68,39.7C61,53.3,54.1,67.5,42.7,71.7C31.4,76,15.7,70.3,1.6,67.5C-12.4,64.6,-24.9,64.6,-39.3,62.2C-53.7,59.7,-70.1,54.8,-72.7,44C-75.3,33.3,-64.2,16.6,-64.2,0C-64.2,-16.6,-75.2,-33.2,-73.8,-46.2C-72.5,-59.2,-58.8,-68.7,-44.5,-75.8C-30.1,-82.8,-15.1,-87.5,-3.3,-81.8C8.5,-76.1,17,-60.1,30.3,-52.4Z" transform="translate(100 100)" />
</svg>
