<svg viewBox="0 0 1000 1000" xmlns="http://www.w3.org/2000/svg"><defs><clipPath id="a"><path fill="currentColor" d="M823.5 603Q784 706 700 781.5t-204.5 89Q375 884 267 816T85 624q-74-124 2.5-246T280 218q116-38 240-100t198.5 53.5Q793 287 828 393.5T823.5 603Z"/></clipPath></defs><g clip-path="url(#a)"><path fill="none" stroke="#000" stroke-width="10" d="M823.5 603Q784 706 700 781.5t-204.5 89Q375 884 267 816T85 624q-74-124 2.5-246T280 218q116-38 240-100t198.5 53.5Q793 287 828 393.5T823.5 603Z"/></g></svg>