<?xml version="1.0" standalone="no"?>
<svg viewBox="0 0 200 200" xmlns="http://www.w3.org/2000/svg">
  <path fill="#F2F4F8" d="M41,-66.4C52.3,-64.5,60,-51.8,66,-38.9C72,-26.1,76.3,-13,77,0.4C77.7,13.9,74.9,27.8,69.4,41.3C63.8,54.9,55.4,68.2,43.4,77.3C31.4,86.4,15.7,91.4,1.2,89.4C-13.4,87.3,-26.7,78.4,-39.1,69.5C-51.5,60.6,-63,51.8,-66.7,40.2C-70.4,28.6,-66.3,14.3,-65.1,0.7C-64,-13,-65.6,-25.9,-60.1,-34.3C-54.6,-42.8,-41.9,-46.6,-30.7,-48.6C-19.4,-50.5,-9.7,-50.5,2.6,-55C14.9,-59.4,29.7,-68.3,41,-66.4Z" transform="translate(100 100)" />
</svg>
