<?xml version="1.0" standalone="no"?>
<svg viewBox="0 0 200 200" xmlns="http://www.w3.org/2000/svg">
  <path fill="#F2F4F8" d="M41.5,-71.3C54.1,-64.6,64.9,-54.1,67.9,-41.6C70.9,-29.1,66.1,-14.5,63.2,-1.7C60.3,11.2,59.1,22.3,54.1,31.3C49,40.3,40.1,47.1,30.4,57.1C20.8,67.1,10.4,80.2,-2.1,83.9C-14.7,87.6,-29.3,81.9,-37.5,71.1C-45.8,60.3,-47.5,44.4,-54.9,31.7C-62.4,19,-75.5,9.5,-79.3,-2.2C-83.1,-13.9,-77.5,-27.7,-67.2,-35.4C-56.9,-43.2,-41.8,-44.8,-29.8,-51.7C-17.8,-58.7,-8.9,-71.1,2.8,-75.9C14.5,-80.7,28.9,-77.9,41.5,-71.3Z" transform="translate(100 100)" />
</svg>
