<svg viewBox="0 0 1000 1000" xmlns="http://www.w3.org/2000/svg"><defs><clipPath id="a"><path fill="currentColor" d="M837.5 625.5q8.5 125.5-108 173t-243 89.5q-126.5 42-197-71T203 602q-16-102-58-246t108-148.5Q403 203 505 187t176.5 55.5Q756 314 792.5 407t45 218.5Z"/></clipPath></defs><g clip-path="url(#a)"><path fill="none" stroke="#000" stroke-width="10" d="M837.5 625.5q8.5 125.5-108 173t-243 89.5q-126.5 42-197-71T203 602q-16-102-58-246t108-148.5Q403 203 505 187t176.5 55.5Q756 314 792.5 407t45 218.5Z"/></g></svg>