<?xml version="1.0" standalone="no"?>
<svg viewBox="0 0 200 200" xmlns="http://www.w3.org/2000/svg">
  <path fill="#F2F4F8" d="M37.1,-64.4C47.1,-58.4,53.5,-46.5,55.4,-34.8C57.3,-23.1,54.6,-11.5,52.2,-1.4C49.8,8.8,47.6,17.5,43.9,26C40.1,34.5,34.7,42.7,27.2,53.6C19.6,64.6,9.8,78.3,-2.3,82.3C-14.4,86.2,-28.7,80.4,-38.7,70.8C-48.7,61.3,-54.4,48,-62.2,35.6C-69.9,23.1,-79.7,11.6,-76.9,1.6C-74.1,-8.3,-58.8,-16.7,-48.6,-24.9C-38.4,-33.2,-33.5,-41.3,-26.3,-48.9C-19,-56.4,-9.5,-63.4,2,-66.9C13.5,-70.4,27.1,-70.4,37.1,-64.4Z" transform="translate(100 100)" />
</svg>
