<svg viewBox="0 0 1000 1000" xmlns="http://www.w3.org/2000/svg"><defs><clipPath id="a"><path fill="currentColor" d="M834.5 620Q830 740 723 798.5T484.5 905q-131.5 48-232-52t-112-226.5Q129 500 124.5 362t113-223q117.5-85 248-40.5t213 121Q781 296 810 398t24.5 222Z"/></clipPath></defs><g clip-path="url(#a)"><path fill="none" stroke="#000" stroke-width="10" d="M834.5 620Q830 740 723 798.5T484.5 905q-131.5 48-232-52t-112-226.5Q129 500 124.5 362t113-223q117.5-85 248-40.5t213 121Q781 296 810 398t24.5 222Z"/></g></svg>