<?xml version="1.0" standalone="no"?>
<svg viewBox="0 0 200 200" xmlns="http://www.w3.org/2000/svg">
  <path fill="#F2F4F8" d="M26.7,-46.8C34,-42.1,39,-33.7,50.2,-25.3C61.4,-16.9,79,-8.4,83.3,2.5C87.7,13.5,78.8,26.9,69.1,38C59.4,49.1,48.9,57.8,37.2,59.4C25.6,61,12.8,55.7,-1.1,57.5C-14.9,59.4,-29.9,68.5,-41.8,67C-53.6,65.5,-62.5,53.3,-68.4,40.4C-74.3,27.5,-77.3,13.7,-72.8,2.6C-68.4,-8.6,-56.6,-17.2,-47.4,-24.5C-38.2,-31.8,-31.8,-37.8,-24.3,-42.5C-16.9,-47.2,-8.4,-50.5,0.6,-51.6C9.7,-52.7,19.4,-51.6,26.7,-46.8Z" transform="translate(100 100)" />
</svg>
