<?xml version="1.0" standalone="no"?>
<svg viewBox="0 0 200 200" xmlns="http://www.w3.org/2000/svg">
  <path fill="#F2F4F8" d="M31.7,-58.5C41.7,-49.2,50.7,-41.8,56.1,-32.4C61.5,-23,63.2,-11.5,60.5,-1.6C57.8,8.4,50.7,16.8,47,29C43.2,41.3,42.9,57.4,35.6,65.1C28.3,72.8,14.2,72.1,-0.9,73.6C-16,75.2,-32,79.2,-44.5,74.5C-57,69.9,-66.1,56.6,-73.2,42.8C-80.2,28.9,-85.3,14.5,-83.9,0.8C-82.6,-12.9,-74.8,-25.8,-64.1,-33.3C-53.4,-40.9,-39.8,-43.1,-28.6,-51.7C-17.4,-60.4,-8.7,-75.6,1.1,-77.5C10.9,-79.4,21.7,-67.9,31.7,-58.5Z" transform="translate(100 100)" />
</svg>
