<?xml version="1.0" standalone="no"?>
<svg viewBox="0 0 200 200" xmlns="http://www.w3.org/2000/svg">
  <path fill="#F2F4F8" d="M34.1,-58C47.6,-51.3,64.2,-49,74,-40C83.9,-31.1,87,-15.5,86,-0.6C85,14.4,80,28.8,73.1,42.9C66.2,56.9,57.4,70.6,44.9,73.4C32.4,76.2,16.2,68.2,3.4,62.3C-9.5,56.5,-19,52.9,-32,50.4C-45.1,47.9,-61.7,46.6,-72.6,38.4C-83.4,30.2,-88.3,15.1,-85.6,1.6C-82.8,-11.9,-72.4,-23.8,-63.7,-35.6C-54.9,-47.5,-47.9,-59.2,-37.6,-67.7C-27.3,-76.1,-13.6,-81.4,-1.7,-78.5C10.3,-75.7,20.7,-64.7,34.1,-58Z" transform="translate(100 100)" />
</svg>
