<?xml version="1.0" standalone="no"?>
<svg viewBox="0 0 200 200" xmlns="http://www.w3.org/2000/svg">
  <path fill="#F2F4F8" d="M32.1,-57.4C40.6,-50.6,46,-40.1,51,-30C55.9,-19.8,60.4,-9.9,63.1,1.6C65.8,13,66.7,26,62.6,37.6C58.5,49.3,49.4,59.5,38.1,67.5C26.9,75.5,13.4,81.2,1.4,78.8C-10.6,76.3,-21.1,65.6,-35,59.1C-48.9,52.7,-66.1,50.4,-72.1,41.2C-78.1,32.1,-72.9,16,-72.2,0.4C-71.5,-15.2,-75.3,-30.5,-72,-44.3C-68.7,-58.1,-58.3,-70.4,-45.1,-74.5C-31.9,-78.6,-15.9,-74.4,-2.1,-70.8C11.8,-67.2,23.5,-64.1,32.1,-57.4Z" transform="translate(100 100)" />
</svg>
