<?xml version="1.0" standalone="no"?>
<svg viewBox="0 0 200 200" xmlns="http://www.w3.org/2000/svg">
  <path fill="#F2F4F8" d="M34.1,-64.6C43.1,-54,48.3,-42.4,55.1,-31.5C62,-20.6,70.5,-10.3,68.8,-1C67.2,8.4,55.4,16.8,49.6,29.5C43.8,42.2,43.9,59.3,36.7,65.8C29.4,72.3,14.7,68.2,1.6,65.5C-11.6,62.8,-23.1,61.5,-35.3,57.8C-47.4,54.1,-60.1,48,-64.4,38C-68.7,28,-64.6,14,-61.9,1.6C-59.1,-10.8,-57.8,-21.7,-52.6,-30.2C-47.4,-38.7,-38.4,-44.8,-29,-55.2C-19.6,-65.6,-9.8,-80.1,1.4,-82.6C12.6,-85,25.2,-75.3,34.1,-64.6Z" transform="translate(100 100)" />
</svg>
