<?xml version="1.0" standalone="no"?>
<svg viewBox="0 0 200 200" xmlns="http://www.w3.org/2000/svg">
  <path fill="#F2F4F8" d="M36.1,-64.1C44.3,-57.9,46.5,-43,49.7,-30.9C52.8,-18.8,56.8,-9.4,57.3,0.2C57.7,9.9,54.5,19.8,48.7,27.2C42.8,34.7,34.3,39.7,25.8,50.2C17.2,60.6,8.6,76.6,-0.8,77.9C-10.1,79.2,-20.3,65.9,-30.3,56.3C-40.3,46.7,-50.2,40.7,-56.6,31.9C-63,23.1,-66,11.6,-69.4,-2C-72.9,-15.6,-76.9,-31.1,-72.4,-43.3C-67.9,-55.4,-55,-64.1,-41.5,-67.3C-28,-70.4,-14,-68.1,0,-68C14,-68,28,-70.4,36.1,-64.1Z" transform="translate(100 100)" />
</svg>
