<?xml version="1.0" standalone="no"?>
<svg viewBox="0 0 200 200" xmlns="http://www.w3.org/2000/svg">
  <path fill="#F2F4F8" d="M41.2,-71.6C50.5,-66.1,52.9,-49,59.2,-35.2C65.4,-21.3,75.4,-10.7,78.8,2C82.2,14.6,79,29.1,70.4,39C61.9,48.9,48,54,35.4,61.2C22.8,68.5,11.4,77.8,-0.9,79.4C-13.3,81,-26.5,74.9,-37.6,66.8C-48.7,58.7,-57.6,48.6,-60.3,37.1C-62.9,25.6,-59.4,12.8,-59.4,-0.1C-59.5,-12.9,-63.3,-25.8,-58.5,-33.5C-53.6,-41.2,-40.2,-43.7,-29,-48.1C-17.8,-52.5,-8.9,-58.7,3.6,-64.8C16,-71,32,-77.1,41.2,-71.6Z" transform="translate(100 100)" />
</svg>
