<?xml version="1.0" standalone="no"?>
<svg viewBox="0 0 200 200" xmlns="http://www.w3.org/2000/svg">
  <path fill="#F2F4F8" d="M33.3,-64.2C41.4,-53.1,45,-40.5,50.3,-29.6C55.6,-18.7,62.7,-9.3,65.1,1.4C67.5,12.1,65.3,24.3,61.7,38.2C58.1,52.1,53.2,67.8,42.7,76C32.1,84.3,16.1,85.1,3.1,79.6C-9.8,74.2,-19.6,62.5,-30.4,54.5C-41.3,46.5,-53.2,42,-61,33.6C-68.8,25.1,-72.4,12.5,-75.8,-1.9C-79.2,-16.4,-82.3,-32.9,-75.5,-43C-68.7,-53.2,-52,-57.2,-37.8,-64.8C-23.5,-72.3,-11.8,-83.5,0.4,-84.2C12.6,-84.9,25.2,-75.2,33.3,-64.2Z" transform="translate(100 100)" />
</svg>
