<?xml version="1.0" standalone="no"?>
<svg viewBox="0 0 200 200" xmlns="http://www.w3.org/2000/svg">
  <path fill="#F2F4F8" d="M32.4,-53.2C44.4,-49.3,58.1,-45.4,62.6,-36.5C67.1,-27.7,62.4,-13.8,62.5,0C62.5,13.9,67.4,27.8,65.3,40.8C63.2,53.8,54.1,65.8,42,73.2C29.9,80.6,15,83.4,0.4,82.7C-14.1,82,-28.2,77.7,-39,69.5C-49.8,61.3,-57.1,49.3,-65.9,37.1C-74.6,24.8,-84.7,12.4,-86.1,-0.8C-87.5,-14.1,-80.3,-28.2,-69.8,-37.3C-59.3,-46.5,-45.5,-50.7,-33.3,-54.5C-21.1,-58.3,-10.6,-61.6,-0.2,-61.3C10.2,-61,20.5,-57.1,32.4,-53.2Z" transform="translate(100 100)" />
</svg>
