<?xml version="1.0" standalone="no"?>
<svg viewBox="0 0 200 200" xmlns="http://www.w3.org/2000/svg">
  <path fill="#F2F4F8" d="M26.6,-48.8C36.4,-40.4,47.7,-37.2,58.7,-30C69.7,-22.7,80.4,-11.4,81.9,0.9C83.3,13.1,75.6,26.1,68.7,40.5C61.8,54.9,55.8,70.5,44.5,80.4C33.2,90.2,16.6,94.3,1,92.5C-14.5,90.7,-29,83,-37.1,71.3C-45.2,59.6,-46.9,43.8,-48.9,31.2C-50.9,18.7,-53.3,9.3,-56.6,-1.9C-59.9,-13.2,-64.2,-26.4,-63.1,-40.4C-61.9,-54.4,-55.2,-69.3,-43.8,-76.8C-32.4,-84.3,-16.2,-84.5,-3.9,-77.7C8.4,-71,16.8,-57.3,26.6,-48.8Z" transform="translate(100 100)" />
</svg>
