<?xml version="1.0" standalone="no"?>
<svg viewBox="0 0 200 200" xmlns="http://www.w3.org/2000/svg">
  <path fill="#F2F4F8" d="M43,-74.1C54.1,-68,60.5,-53.3,68,-39.5C75.5,-25.7,84.2,-12.9,83.3,-0.5C82.4,11.8,71.9,23.6,63.3,35.5C54.7,47.4,48,59.4,37.7,65.3C27.5,71.1,13.7,70.8,-0.5,71.8C-14.8,72.7,-29.6,74.8,-41.8,70.1C-54,65.4,-63.5,53.8,-66.4,40.9C-69.3,28.1,-65.5,14.1,-63.5,1.2C-61.4,-11.7,-61.1,-23.4,-57.4,-34.8C-53.7,-46.2,-46.6,-57.3,-36.4,-63.9C-26.3,-70.6,-13.2,-72.9,1.4,-75.3C15.9,-77.7,31.8,-80.2,43,-74.1Z" transform="translate(100 100)" />
</svg>
