<?xml version="1.0" standalone="no"?>
<svg viewBox="0 0 200 200" xmlns="http://www.w3.org/2000/svg">
  <path fill="#F2F4F8" d="M39.9,-76.8C47.5,-64.7,46.6,-45.6,52.1,-31.6C57.6,-17.6,69.5,-8.8,75.8,3.6C82,16,82.7,32.1,76.3,44.5C69.9,56.9,56.5,65.7,42.6,69C28.7,72.2,14.3,69.9,-0.7,71.1C-15.8,72.4,-31.6,77.2,-42.4,72.2C-53.1,67.1,-58.9,52.2,-62.6,38.6C-66.3,24.9,-67.8,12.4,-70.9,-1.8C-74,-16,-78.6,-32,-74.1,-44.3C-69.6,-56.6,-56.1,-65.1,-42.2,-73.6C-28.3,-82.1,-14.2,-90.6,1,-92.3C16.1,-94,32.3,-88.9,39.9,-76.8Z" transform="translate(100 100)" />
</svg>
