<?xml version="1.0" standalone="no"?>
<svg viewBox="0 0 200 200" xmlns="http://www.w3.org/2000/svg">
  <path fill="#F2F4F8" d="M37.8,-71.8C46.5,-60.5,49.2,-45.2,54.7,-32.6C60.3,-20,68.6,-10,70.7,1.2C72.8,12.4,68.6,24.8,60.2,32.5C51.8,40.2,39.2,43.1,28.5,46.2C17.7,49.3,8.9,52.5,-1.9,55.8C-12.6,59,-25.2,62.3,-33.7,57.9C-42.1,53.4,-46.2,41.3,-53.9,30.3C-61.6,19.4,-72.9,9.7,-73.2,-0.2C-73.5,-10.1,-63,-20.2,-57.3,-34.6C-51.6,-49,-50.8,-67.8,-42.1,-79.1C-33.3,-90.4,-16.7,-94.3,-1,-92.4C14.6,-90.6,29.1,-83.2,37.8,-71.8Z" transform="translate(100 100)" />
</svg>
