<?xml version="1.0" standalone="no"?>
<svg viewBox="0 0 200 200" xmlns="http://www.w3.org/2000/svg">
  <path fill="#F2F4F8" d="M39.6,-68C51,-62,59.8,-50.8,66.1,-38.6C72.3,-26.4,76.1,-13.2,74,-1.2C71.9,10.7,63.8,21.5,57,32.8C50.3,44.1,44.7,56,35.5,64.8C26.2,73.6,13.1,79.3,1.5,76.7C-10.1,74.1,-20.2,63.3,-28.3,53.8C-36.3,44.3,-42.4,36.1,-52.5,27.4C-62.5,18.7,-76.6,9.3,-78.4,-1C-80.1,-11.4,-69.7,-22.8,-61.2,-34.4C-52.8,-45.9,-46.5,-57.7,-36.6,-64.6C-26.7,-71.5,-13.4,-73.5,0.4,-74.1C14.1,-74.7,28.2,-74,39.6,-68Z" transform="translate(100 100)" />
</svg>
