<svg viewBox="0 0 1000 1000" xmlns="http://www.w3.org/2000/svg"><defs><clipPath id="a"><path fill="currentColor" d="M864 594.5q-104 94.5-168.5 202t-189.5 89Q381 867 262.5 813t-146-183.5Q89 500 103 361t136-214.5q122-75.5 257-63t205.5 116Q772 303 870 401.5t-6 193Z"/></clipPath></defs><g clip-path="url(#a)"><path fill="none" stroke="#000" stroke-width="10" d="M864 594.5q-104 94.5-168.5 202t-189.5 89Q381 867 262.5 813t-146-183.5Q89 500 103 361t136-214.5q122-75.5 257-63t205.5 116Q772 303 870 401.5t-6 193Z"/></g></svg>