<svg viewBox="0 0 1000 1000" xmlns="http://www.w3.org/2000/svg"><defs><clipPath id="a"><path fill="currentColor" d="M857 608.5Q798 717 715.5 813T494 927.5q-139 18.5-195-111t-148-223q-92-93.5-35-212T267 168q94-95 235-101.5T710.5 179Q778 298 847 399t10 209.5Z"/></clipPath></defs><g clip-path="url(#a)"><path fill="none" stroke="#000" stroke-width="10" d="M857 608.5Q798 717 715.5 813T494 927.5q-139 18.5-195-111t-148-223q-92-93.5-35-212T267 168q94-95 235-101.5T710.5 179Q778 298 847 399t10 209.5Z"/></g></svg>