<svg viewBox="0 0 1000 1000" xmlns="http://www.w3.org/2000/svg"><defs><clipPath id="a"><path fill="currentColor" d="M901.5 644.5Q898 789 752 808t-260.5 44q-114.5 25-200-56.5T184 607q-22-107-26-232.5t107-190Q376 120 500 120t234 65q110 65 140.5 190t27 269.5Z"/></clipPath></defs><g clip-path="url(#a)"><path fill="none" stroke="#000" stroke-width="10" d="M901.5 644.5Q898 789 752 808t-260.5 44q-114.5 25-200-56.5T184 607q-22-107-26-232.5t107-190Q376 120 500 120t234 65q110 65 140.5 190t27 269.5Z"/></g></svg>